<svg width="25" height="25" viewBox="0 0 25 25" fill="none" xmlns="http://www.w3.org/2000/svg">
<path d="M24.75 12.7721C24.75 11.7649 24.6666 11.0299 24.4861 10.2676H12.75V14.8137H19.6388C19.5 15.9435 18.75 17.6448 17.0833 18.7881L17.0599 18.9403L20.7707 21.7575L21.0278 21.7826C23.3888 19.6457 24.75 16.5015 24.75 12.7721Z" fill="#4285F4"/>
<path d="M12.7492 24.75C16.1242 24.75 18.9583 23.6609 21.0278 21.7826L17.0833 18.7881C16.0278 19.5095 14.6103 20.0132 12.7492 20.0132C9.44371 20.0132 6.63819 17.8763 5.6381 14.9227L5.49151 14.9349L1.63304 17.8613L1.58258 17.9988C3.63811 22.0005 7.86032 24.75 12.7492 24.75Z" fill="#34A853"/>
<path d="M5.6381 14.9227C5.37422 14.1605 5.22223 13.3438 5.22223 12.5C5.22223 11.656 5.37495 10.8394 5.62495 10.0772L5.61796 9.91485L1.71112 6.94144L1.5833 7.00103C0.736116 8.6616 0.25 10.5264 0.25 12.5C0.25 14.4736 0.735397 16.3382 1.58258 17.9988L5.6381 14.9227Z" fill="#FBBC05"/>
<path d="M12.7493 4.98663C15.0965 4.98663 16.6798 5.98024 17.5826 6.81057L21.1104 3.435C18.9438 1.46139 16.1243 0.25 12.7493 0.25C7.86036 0.25 3.63884 2.99939 1.5833 7.00103L5.62495 10.0772C6.63893 7.12357 9.44376 4.98663 12.7493 4.98663Z" fill="#EB4335"/>
</svg>
